<?xml version="1.0" encoding="UTF-8"?>
<svg version="1.1" xmlns="http://www.w3.org/2000/svg" width="290" height="174">
<path d="M0 0 C95.7 0 191.4 0 290 0 C290 57.42 290 114.84 290 174 C194.3 174 98.6 174 0 174 C0 116.58 0 59.16 0 0 Z " fill="#093226" transform="translate(0,0)"/>
<path d="M0 0 C95.7 0 191.4 0 290 0 C290 24.09 290 48.18 290 73 C274.66673003 73.17888815 259.33354586 73.34878276 244 73.5 C242.7966526 73.51187725 241.59330521 73.5237545 240.35349274 73.53599167 C187.19433057 74.05343839 134.03629559 74.08564756 80.875 74.0625 C79.87198853 74.06207577 78.86897705 74.06165154 77.83557129 74.06121445 C70.82918267 74.05820118 63.82279442 74.05470068 56.81640625 74.05078125 C55.93578836 74.0502903 55.05517048 74.04979935 54.1478672 74.04929352 C36.098571 74.03883047 18.04929183 74.01839679 0 74 C0 49.58 0 25.16 0 0 Z " fill="#272E1F" transform="translate(0,0)"/>
<path d="M0 0 C12.52369389 0.01144771 25.04738853 0.01674256 37.57108641 0.021703 C63.20322785 0.03198408 88.83535996 0.0494164 114.4674933 0.07202661 C114.4674933 2.38202661 114.4674933 4.69202661 114.4674933 7.07202661 C18.7674933 7.07202661 -76.9325067 7.07202661 -175.5325067 7.07202661 C-175.5325067 5.09202661 -175.5325067 3.11202661 -175.5325067 1.07202661 C-117.02177248 0.00123429 -58.5190227 -0.05449534 0 0 Z " fill="#2F311F" transform="translate(175.53250670433044,28.92797338962555)"/>
<path d="M0 0 C95.7 0 191.4 0 290 0 C290 1.98 290 3.96 290 6 C194.3 6 98.6 6 0 6 C0 4.02 0 2.04 0 0 Z " fill="#232D1F" transform="translate(0,0)"/>
<path d="M0 0 C95.7 0 191.4 0 290 0 C290 1.32 290 2.64 290 4 C194.3 4 98.6 4 0 4 C0 2.68 0 1.36 0 0 Z " fill="#1B2D1E" transform="translate(0,18)"/>
<path d="M0 0 C95.7 0 191.4 0 290 0 C290 0.99 290 1.98 290 3 C264.29637972 3.13294962 238.59274764 3.26338975 212.88910103 3.39115143 C200.94380232 3.45057967 188.99850815 3.51072278 177.05322266 3.57275391 C118.03499619 3.87878886 59.01906489 4.08347904 0 4 C0 2.68 0 1.36 0 0 Z " fill="#19241C" transform="translate(0,60)"/>
<path d="M0 0 C95.7 0 191.4 0 290 0 C290 0.99 290 1.98 290 3 C263.70576043 3.13276635 237.41151013 3.26320926 211.11724663 3.39115143 C198.89830879 3.45065586 186.67937505 3.5108301 174.46044922 3.57275391 C116.30655806 3.86707417 58.15469709 4.08833283 0 4 C0 2.68 0 1.36 0 0 Z " fill="#1B251A" transform="translate(0,48)"/>
<path d="M0 0 C95.7 0 191.4 0 290 0 C290 0.99 290 1.98 290 3 C263.41045082 3.13267795 236.82089141 3.26312184 210.23131943 3.39115143 C197.87556201 3.45069276 185.51980848 3.51088184 173.1640625 3.57275391 C115.44234036 3.86142505 57.7225161 4.09103895 0 4 C0 2.68 0 1.36 0 0 Z " fill="#1C2619" transform="translate(0,36)"/>
<path d="M0 0 C12.52369389 0.01144771 25.04738853 0.01674256 37.57108641 0.021703 C63.20322785 0.03198408 88.83535996 0.0494164 114.4674933 0.07202661 C114.4674933 1.06202661 114.4674933 2.05202661 114.4674933 3.07202661 C18.7674933 3.07202661 -76.9325067 3.07202661 -175.5325067 3.07202661 C-175.5325067 2.41202661 -175.5325067 1.75202661 -175.5325067 1.07202661 C-117.02177248 0.00123429 -58.5190227 -0.05449534 0 0 Z " fill="#463D27" transform="translate(175.53250670433044,28.92797338962555)"/>
<path d="M0 0 C12.3883082 0.01145817 24.77661716 0.016745 37.16492939 0.021703 C62.51469358 0.03197702 87.86444832 0.04940242 113.21420431 0.07202661 C113.21420431 1.06202661 113.21420431 2.05202661 113.21420431 3.07202661 C17.51420431 3.07202661 -78.18579569 3.07202661 -176.78579569 3.07202661 C-176.78579569 2.41202661 -176.78579569 1.75202661 -176.78579569 1.07202661 C-117.85670013 0.03493881 -58.93692932 -0.05553763 0 0 Z " fill="#443D27" transform="translate(176.78579568862915,38.92797338962555)"/>
<path d="M0 0 C12.2529225 0.01146889 24.50584578 0.0167475 36.75877237 0.021703 C61.82615932 0.0319698 86.89353669 0.0493881 111.96091533 0.07202661 C111.96091533 1.06202661 111.96091533 2.05202661 111.96091533 3.07202661 C16.26091533 3.07202661 -79.43908467 3.07202661 -178.03908467 3.07202661 C-178.03908467 2.41202661 -178.03908467 1.75202661 -178.03908467 1.07202661 C-118.69181701 0.06615674 -59.3547013 -0.05660489 0 0 Z " fill="#403A29" transform="translate(178.03908467292786,50.92797338962555)"/>
<path d="M0 0 C12.1175368 0.01147986 24.23507441 0.01675005 36.35261536 0.021703 C61.13762506 0.03196243 85.92262506 0.04937344 110.70762634 0.07202661 C110.70762634 1.06202661 110.70762634 2.05202661 110.70762634 3.07202661 C15.00762634 3.07202661 -80.69237366 3.07202661 -179.29237366 3.07202661 C-179.29237366 2.41202661 -179.29237366 1.75202661 -179.29237366 1.07202661 C-119.52696546 0.09515123 -59.7724584 -0.05769815 0 0 Z " fill="#3E382A" transform="translate(179.29237365722656,56.92797338962555)"/>
<path d="M0 0 C0 0.66 0 1.32 0 2 C-95.7 2 -191.4 2 -290 2 C-290 1.34 -290 0.68 -290 0 C-193.34481992 -1.8855259 -96.65954388 -1.20430538 0 0 Z " fill="#523521" transform="translate(290,6)"/>
<path d="M0 0 C0 0.66 0 1.32 0 2 C-95.7 2 -191.4 2 -290 2 C-290 1.34 -290 0.68 -290 0 C-193.34168081 -1.83704633 -96.66241991 -1.18435397 0 0 Z " fill="#513820" transform="translate(290,22)"/>
<path d="M0 0 C11.98215111 0.01149111 23.96430303 0.01675265 35.94645834 0.021703 C60.44909081 0.0319549 84.95171343 0.04935842 109.45433736 0.07202661 C109.45433736 0.73202661 109.45433736 1.39202661 109.45433736 2.07202661 C94.68371246 2.25835476 79.91287023 2.42158734 65.14183736 2.57202661 C63.39411597 2.58984249 63.39411597 2.58984249 61.61108708 2.60801828 C8.41350273 3.14244417 -44.7833501 3.15725462 -97.98316264 3.13452661 C-99.00536796 3.13410238 -100.02757328 3.13367815 -101.08075452 3.13324106 C-127.56906604 3.1220634 -154.05736559 3.10179588 -180.54566264 3.07202661 C-180.54566264 2.41202661 -180.54566264 1.75202661 -180.54566264 1.07202661 C-120.36219661 0.1221525 -60.19016253 -0.05881835 0 0 Z " fill="#462E26" transform="translate(180.54566264152527,62.92797338962555)"/>
<path d="M0 0 C1.81879795 0.00128403 1.81879795 0.00128403 3.67433929 0.00259399 C17.78291071 0.01334917 31.89145684 0.03229911 46 0.0625 C46 1.0525 46 2.0425 46 3.0625 C-49.7 3.0625 -145.4 3.0625 -244 3.0625 C-244 2.4025 -244 1.7425 -244 1.0625 C-217.04170642 0.88925736 -190.08337209 0.72305814 -163.125 0.5625 C-162.12756775 0.55655146 -161.1301355 0.55060292 -160.10247803 0.54447412 C-106.73485451 0.2266036 -53.36869315 -0.03796457 0 0 Z " fill="#003728" transform="translate(244,72.9375)"/>
<path d="M0 0 C1.17409046 0.00085602 2.34818092 0.00171204 3.55784988 0.00259399 C17.14275197 0.01329379 30.72762764 0.0321245 44.3125 0.0625 C44.3125 1.0525 44.3125 2.0425 44.3125 3.0625 C-51.3875 3.0625 -147.0875 3.0625 -245.6875 3.0625 C-245.6875 2.4025 -245.6875 1.7425 -245.6875 1.0625 C-218.16670382 0.88957269 -190.64586953 0.72333056 -163.125 0.5625 C-162.10841922 0.55655146 -161.09183845 0.55060292 -160.04445219 0.54447412 C-106.69621403 0.2326866 -53.34928842 -0.039195 0 0 Z " fill="#003628" transform="translate(245.6875,64.9375)"/>
<path d="M0 0 C0 0.33 0 0.66 0 1 C-15.14563786 1.1855478 -30.2914789 1.34903675 -45.4375 1.5 C-46.62811413 1.51187725 -47.81872826 1.5237545 -49.0454216 1.53599167 C-102.21738329 2.05897957 -155.38837045 2.08550593 -208.5625 2.0625 C-209.57190942 2.06207577 -210.58131885 2.06165154 -211.62131643 2.06121445 C-237.74755325 2.05004956 -263.8737779 2.02980388 -290 2 C-290 1.34 -290 0.68 -290 0 C-193.32009574 -1.46127856 -96.68317023 -1.01599388 0 0 Z " fill="#52221F" transform="translate(290,68)"/>
<path d="M0 0 C0 0.33 0 0.66 0 1 C-15.33314394 1.18517427 -30.66648444 1.34878306 -46 1.5 C-47.8050211 1.51781588 -47.8050211 1.51781588 -49.64650726 1.53599167 C-102.80566943 2.05343839 -155.96370441 2.08564756 -209.125 2.0625 C-210.12801147 2.06207577 -211.13102295 2.06165154 -212.16442871 2.06121445 C-238.10962825 2.05005607 -264.05481527 2.02982158 -290 2 C-290 1.34 -290 0.68 -290 0 C-193.31727428 -1.40384024 -96.68552497 -0.98789568 0 0 Z " fill="#4F201F" transform="translate(290,72)"/>
<path d="M0 0 C0 0.33 0 0.66 0 1 C-15.70815537 1.18445817 -31.41649492 1.34829143 -47.125 1.5 C-48.9682209 1.51781588 -48.9682209 1.51781588 -50.84867859 1.53599167 C-103.98220078 2.04269298 -157.11440179 2.08593632 -210.25 2.0625 C-211.24021558 2.06207577 -212.23043116 2.06165154 -213.25065327 2.06121445 C-238.8337781 2.05006935 -264.41689023 2.0298578 -290 2 C-290 1.34 -290 0.68 -290 0 C-193.31636152 -1.37677581 -96.68550125 -0.97440982 0 0 Z " fill="#4D1F20" transform="translate(290,76)"/>
</svg>
